<svg width="520" height="230" xmlns="http://www.w3.org/2000/svg">
  <defs>
    <linearGradient id="g1" x1="0%" y1="0%" x2="100%" y2="0%">
      <stop offset="0%"   stop-color="#d4a017"  stop-opacity="1"/>
      <stop offset="100%" stop-color="#f0c040" stop-opacity="1"/>
    </linearGradient>
  </defs>

  <rect width="520" height="230" rx="12" fill="#0d1117"/>
  <rect x="1" y="1" width="518" height="228" rx="12" fill="none"
        stroke="#d4a017" stroke-width="1" stroke-opacity="0.5"/>
  <rect width="520" height="4" rx="2" fill="url(#g1)"/>

  <text x="28" y="50" font-size="18" fill="#d4a017"
        font-family="'Courier New',monospace" font-weight="bold">
    Felipe Cardoso — GitHub Stats
  </text>
  <line x1="28" y1="64" x2="492" y2="64"
        stroke="#d4a017" stroke-width="0.6" stroke-opacity="0.4"/>

  
  <g transform="translate(44,77) scale(0.9)">
    <path d="M12 2l3.09 6.26L22 9.27l-5 4.87 1.18 6.88L12 17.77l-6.18 3.25L7 14.14 2 9.27l6.91-1.01L12 2z" fill="#d4a017" />
  </g>
  <text x="76" y="99" font-size="24" fill="#ffffff"
        font-family="'Courier New',monospace" font-weight="bold">1</text>
  <text x="76" y="121" font-size="14" fill="#a8b2d8"
        font-family="'Courier New',monospace">Stars</text>
  <g transform="translate(194,77) scale(0.9)">
    <path d="M9 3H7v4H3v2h4v10h2V9h4V7H9V3zm8 8h-2v2h-2v2h2v4h2v-4h2v-2h-2v-2z" fill="#d4a017" />
  </g>
  <text x="226" y="99" font-size="24" fill="#ffffff"
        font-family="'Courier New',monospace" font-weight="bold">118</text>
  <text x="226" y="121" font-size="14" fill="#a8b2d8"
        font-family="'Courier New',monospace">Commits</text>
  <g transform="translate(344,77) scale(0.9)">
    <path d="M6 3a3 3 0 110 6 3 3 0 010-6zm12 0a3 3 0 110 6 3 3 0 010-6zM6 7a1 1 0 100-2 1 1 0 000 2zm12 0a1 1 0 100-2 1 1 0 000 2zm-1 3v7l-2-2-2 2V10H17zM7 10v2a5 5 0 005 5h1v2h-1a7 7 0 01-7-7v-2h2z" fill="#d4a017" />
  </g>
  <text x="376" y="99" font-size="24" fill="#ffffff"
        font-family="'Courier New',monospace" font-weight="bold">2</text>
  <text x="376" y="121" font-size="14" fill="#a8b2d8"
        font-family="'Courier New',monospace">Pull Requests</text>
  <g transform="translate(44,152) scale(0.9)">
    <path d="M12 22C6.477 22 2 17.523 2 12S6.477 2 12 2s10 4.477 10 10-4.477 10-10 10zm0-2a8 8 0 100-16 8 8 0 000 16zm-1-5h2v2h-2v-2zm0-8h2v6h-2V7z" fill="#d4a017" />
  </g>
  <text x="76" y="174" font-size="24" fill="#ffffff"
        font-family="'Courier New',monospace" font-weight="bold">0</text>
  <text x="76" y="196" font-size="14" fill="#a8b2d8"
        font-family="'Courier New',monospace">Issues</text>
  <g transform="translate(194,152) scale(0.9)">
    <path d="M3 3h18v2H3V3zm0 4h18v2H3V7zm0 4h12v2H3v-2zm0 4h12v2H3v-2zm0 4h18v2H3v-2z" fill="#d4a017" />
  </g>
  <text x="226" y="174" font-size="24" fill="#ffffff"
        font-family="'Courier New',monospace" font-weight="bold">10</text>
  <text x="226" y="196" font-size="14" fill="#a8b2d8"
        font-family="'Courier New',monospace">Repositórios</text>
  <g transform="translate(344,152) scale(0.9)">
    <path d="M16 11c1.66 0 2.99-1.34 2.99-3S17.66 5 16 5c-1.66 0-3 1.34-3 3s1.34 3 3 3zm-8 0c1.66 0 2.99-1.34 2.99-3S9.66 5 8 5C6.34 5 5 6.34 5 8s1.34 3 3 3zm0 2c-2.33 0-7 1.17-7 3.5V19h14v-2.5c0-2.33-4.67-3.5-7-3.5zm8 0c-.29 0-.62.02-.97.05 1.16.84 1.97 1.97 1.97 3.45V19h6v-2.5c0-2.33-4.67-3.5-7-3.5z" fill="#d4a017" />
  </g>
  <text x="376" y="174" font-size="24" fill="#ffffff"
        font-family="'Courier New',monospace" font-weight="bold">29</text>
  <text x="376" y="196" font-size="14" fill="#a8b2d8"
        font-family="'Courier New',monospace">Seguidores</text>
</svg>